<?xml version="1.0" standalone="no"?><!-- Generator: Gravit.io --><svg xmlns="http://www.w3.org/2000/svg" xmlns:xlink="http://www.w3.org/1999/xlink" style="isolation:isolate" viewBox="0 0 600 250" width="600" height="250"><defs><clipPath id="_clipPath_r8H3yZNsp7BWLAc7Ovy1WsJ8DBjMLjLr"><rect width="600" height="250"/></clipPath></defs><g clip-path="url(#_clipPath_r8H3yZNsp7BWLAc7Ovy1WsJ8DBjMLjLr)"><g><g><g><path d=" M 12.316 144.049 L 12.316 207.704 C 12.316 210.92 14.923 213.526 18.138 213.526 L 161.177 213.526 C 164.393 213.526 167 210.92 167 207.704 L 167 144.049 L 12.316 144.049 Z " fill="rgb(255,135,33)"/></g></g><g><g><path d=" M 111.995 102.129 L 85 132.404 L 113.957 132.404 L 140.952 102.129 L 111.995 102.129 Z " fill="rgb(255,135,33)"/></g></g><g><g><path d=" M 161.177 102.129 L 156.553 102.129 L 129.558 132.404 L 167 132.404 L 167 107.951 C 167 104.735 164.393 102.129 161.177 102.129 Z " fill="rgb(255,135,33)"/></g></g><g><g><path d=" M 68.213 102.129 L 41.219 132.404 L 69.398 132.404 L 96.394 102.129 L 68.213 102.129 Z " fill="rgb(255,135,33)"/></g></g><g><g><path d=" M 78.349 41.629 L 53.123 52.861 L 37.206 102.129 L 24.969 102.129 L 38.83 59.225 L 3.456 74.974 C 0.518 76.282 -0.803 79.724 0.505 82.661 L 12.316 109.189 L 12.316 132.404 L 25.616 132.404 L 52.611 102.129 L 45.53 102.129 L 61.034 95.226 L 78.349 41.629 Z " fill="rgb(255,135,33)"/></g></g><g><g><path d=" M 92.643 35.265 L 75.328 88.862 L 100.554 77.631 L 117.869 24.034 L 92.643 35.265 Z " fill="rgb(255,135,33)"/></g></g><g><g><path d=" M 154.13 47.404 L 141.816 19.746 C 140.508 16.808 137.066 15.486 134.129 16.794 L 132.162 17.67 L 114.847 71.267 L 151.179 55.091 C 152.59 54.463 153.693 53.3 154.247 51.858 C 154.8 50.416 154.758 48.814 154.13 47.404 Z " fill="rgb(255,135,33)"/></g></g></g><path d=" M 234.066 115.499 L 234.066 182.706 L 217.309 182.706 L 217.309 115.499 L 192.055 115.499 L 192.055 98.683 L 259.262 98.683 L 259.262 115.499 L 234.066 115.499 L 234.066 115.499 Z  M 311.586 131.202 L 281.586 167.355 L 281.586 167.355 Q 282.523 167.647 283.461 167.735 L 283.461 167.735 L 283.461 167.735 Q 284.398 167.823 285.336 167.823 L 285.336 167.823 L 285.336 167.823 Q 287.68 167.823 289.848 167.179 L 289.848 167.179 L 289.848 167.179 Q 292.016 166.534 293.92 165.333 L 293.92 165.333 L 293.92 165.333 Q 295.824 164.132 297.318 162.403 L 297.318 162.403 L 297.318 162.403 Q 298.813 160.675 299.75 158.565 L 299.75 158.565 L 311.469 170.343 L 311.469 170.343 Q 309.242 173.507 306.342 176.026 L 306.342 176.026 L 306.342 176.026 Q 303.441 178.546 300.072 180.304 L 300.072 180.304 L 300.072 180.304 Q 296.703 182.062 292.982 182.97 L 292.982 182.97 L 292.982 182.97 Q 289.262 183.878 285.336 183.878 L 285.336 183.878 L 285.336 183.878 Q 278.715 183.878 272.885 181.417 L 272.885 181.417 L 272.885 181.417 Q 267.055 178.956 262.689 174.562 L 262.689 174.562 L 262.689 174.562 Q 258.324 170.167 255.805 164.103 L 255.805 164.103 L 255.805 164.103 Q 253.285 158.038 253.285 150.772 L 253.285 150.772 L 253.285 150.772 Q 253.285 143.331 255.805 137.179 L 255.805 137.179 L 255.805 137.179 Q 258.324 131.026 262.689 126.69 L 262.689 126.69 L 262.689 126.69 Q 267.055 122.355 272.885 119.952 L 272.885 119.952 L 272.885 119.952 Q 278.715 117.55 285.336 117.55 L 285.336 117.55 L 285.336 117.55 Q 289.262 117.55 293.012 118.487 L 293.012 118.487 L 293.012 118.487 Q 296.762 119.425 300.131 121.183 L 300.131 121.183 L 300.131 121.183 Q 303.5 122.94 306.43 125.489 L 306.43 125.489 L 306.43 125.489 Q 309.359 128.038 311.586 131.202 L 311.586 131.202 L 311.586 131.202 Z  M 271.156 159.093 L 289.789 134.366 L 289.789 134.366 Q 288.676 133.956 287.592 133.839 L 287.592 133.839 L 287.592 133.839 Q 286.508 133.722 285.336 133.722 L 285.336 133.722 L 285.336 133.722 Q 282.055 133.722 279.154 134.923 L 279.154 134.923 L 279.154 134.923 Q 276.254 136.124 274.115 138.351 L 274.115 138.351 L 274.115 138.351 Q 271.977 140.577 270.746 143.712 L 270.746 143.712 L 270.746 143.712 Q 269.516 146.847 269.516 150.772 L 269.516 150.772 L 269.516 150.772 Q 269.516 151.651 269.604 152.765 L 269.604 152.765 L 269.604 152.765 Q 269.691 153.878 269.896 155.021 L 269.896 155.021 L 269.896 155.021 Q 270.102 156.163 270.395 157.218 L 270.395 157.218 L 270.395 157.218 Q 270.688 158.272 271.156 159.093 L 271.156 159.093 L 271.156 159.093 Z  M 335.727 94.991 L 335.727 182.706 L 319.613 182.706 L 319.613 94.991 L 335.727 94.991 L 335.727 94.991 Z  M 402.875 131.202 L 372.875 167.355 L 372.875 167.355 Q 373.813 167.647 374.75 167.735 L 374.75 167.735 L 374.75 167.735 Q 375.688 167.823 376.625 167.823 L 376.625 167.823 L 376.625 167.823 Q 378.969 167.823 381.137 167.179 L 381.137 167.179 L 381.137 167.179 Q 383.305 166.534 385.209 165.333 L 385.209 165.333 L 385.209 165.333 Q 387.113 164.132 388.607 162.403 L 388.607 162.403 L 388.607 162.403 Q 390.102 160.675 391.039 158.565 L 391.039 158.565 L 402.758 170.343 L 402.758 170.343 Q 400.531 173.507 397.631 176.026 L 397.631 176.026 L 397.631 176.026 Q 394.73 178.546 391.361 180.304 L 391.361 180.304 L 391.361 180.304 Q 387.992 182.062 384.271 182.97 L 384.271 182.97 L 384.271 182.97 Q 380.551 183.878 376.625 183.878 L 376.625 183.878 L 376.625 183.878 Q 370.004 183.878 364.174 181.417 L 364.174 181.417 L 364.174 181.417 Q 358.344 178.956 353.979 174.562 L 353.979 174.562 L 353.979 174.562 Q 349.613 170.167 347.094 164.103 L 347.094 164.103 L 347.094 164.103 Q 344.574 158.038 344.574 150.772 L 344.574 150.772 L 344.574 150.772 Q 344.574 143.331 347.094 137.179 L 347.094 137.179 L 347.094 137.179 Q 349.613 131.026 353.979 126.69 L 353.979 126.69 L 353.979 126.69 Q 358.344 122.355 364.174 119.952 L 364.174 119.952 L 364.174 119.952 Q 370.004 117.55 376.625 117.55 L 376.625 117.55 L 376.625 117.55 Q 380.551 117.55 384.301 118.487 L 384.301 118.487 L 384.301 118.487 Q 388.051 119.425 391.42 121.183 L 391.42 121.183 L 391.42 121.183 Q 394.789 122.94 397.719 125.489 L 397.719 125.489 L 397.719 125.489 Q 400.648 128.038 402.875 131.202 L 402.875 131.202 L 402.875 131.202 Z  M 362.445 159.093 L 381.078 134.366 L 381.078 134.366 Q 379.965 133.956 378.881 133.839 L 378.881 133.839 L 378.881 133.839 Q 377.797 133.722 376.625 133.722 L 376.625 133.722 L 376.625 133.722 Q 373.344 133.722 370.443 134.923 L 370.443 134.923 L 370.443 134.923 Q 367.543 136.124 365.404 138.351 L 365.404 138.351 L 365.404 138.351 Q 363.266 140.577 362.035 143.712 L 362.035 143.712 L 362.035 143.712 Q 360.805 146.847 360.805 150.772 L 360.805 150.772 L 360.805 150.772 Q 360.805 151.651 360.893 152.765 L 360.893 152.765 L 360.893 152.765 Q 360.98 153.878 361.186 155.021 L 361.186 155.021 L 361.186 155.021 Q 361.391 156.163 361.684 157.218 L 361.684 157.218 L 361.684 157.218 Q 361.977 158.272 362.445 159.093 L 362.445 159.093 L 362.445 159.093 Z  M 465.395 131.202 L 435.395 167.355 L 435.395 167.355 Q 436.332 167.647 437.27 167.735 L 437.27 167.735 L 437.27 167.735 Q 438.207 167.823 439.145 167.823 L 439.145 167.823 L 439.145 167.823 Q 441.488 167.823 443.656 167.179 L 443.656 167.179 L 443.656 167.179 Q 445.824 166.534 447.729 165.333 L 447.729 165.333 L 447.729 165.333 Q 449.633 164.132 451.127 162.403 L 451.127 162.403 L 451.127 162.403 Q 452.621 160.675 453.559 158.565 L 453.559 158.565 L 465.277 170.343 L 465.277 170.343 Q 463.051 173.507 460.15 176.026 L 460.15 176.026 L 460.15 176.026 Q 457.25 178.546 453.881 180.304 L 453.881 180.304 L 453.881 180.304 Q 450.512 182.062 446.791 182.97 L 446.791 182.97 L 446.791 182.97 Q 443.07 183.878 439.145 183.878 L 439.145 183.878 L 439.145 183.878 Q 432.523 183.878 426.693 181.417 L 426.693 181.417 L 426.693 181.417 Q 420.863 178.956 416.498 174.562 L 416.498 174.562 L 416.498 174.562 Q 412.133 170.167 409.613 164.103 L 409.613 164.103 L 409.613 164.103 Q 407.094 158.038 407.094 150.772 L 407.094 150.772 L 407.094 150.772 Q 407.094 143.331 409.613 137.179 L 409.613 137.179 L 409.613 137.179 Q 412.133 131.026 416.498 126.69 L 416.498 126.69 L 416.498 126.69 Q 420.863 122.355 426.693 119.952 L 426.693 119.952 L 426.693 119.952 Q 432.523 117.55 439.145 117.55 L 439.145 117.55 L 439.145 117.55 Q 443.07 117.55 446.82 118.487 L 446.82 118.487 L 446.82 118.487 Q 450.57 119.425 453.939 121.183 L 453.939 121.183 L 453.939 121.183 Q 457.309 122.94 460.238 125.489 L 460.238 125.489 L 460.238 125.489 Q 463.168 128.038 465.395 131.202 L 465.395 131.202 L 465.395 131.202 Z  M 424.965 159.093 L 443.598 134.366 L 443.598 134.366 Q 442.484 133.956 441.4 133.839 L 441.4 133.839 L 441.4 133.839 Q 440.316 133.722 439.145 133.722 L 439.145 133.722 L 439.145 133.722 Q 435.863 133.722 432.963 134.923 L 432.963 134.923 L 432.963 134.923 Q 430.063 136.124 427.924 138.351 L 427.924 138.351 L 427.924 138.351 Q 425.785 140.577 424.555 143.712 L 424.555 143.712 L 424.555 143.712 Q 423.324 146.847 423.324 150.772 L 423.324 150.772 L 423.324 150.772 Q 423.324 151.651 423.412 152.765 L 423.412 152.765 L 423.412 152.765 Q 423.5 153.878 423.705 155.021 L 423.705 155.021 L 423.705 155.021 Q 423.91 156.163 424.203 157.218 L 424.203 157.218 L 424.203 157.218 Q 424.496 158.272 424.965 159.093 L 424.965 159.093 L 424.965 159.093 Z  M 506.469 182.706 L 490.414 182.706 L 466.508 119.952 L 484.73 119.952 L 498.441 159.093 L 512.094 119.952 L 530.375 119.952 L 506.469 182.706 L 506.469 182.706 Z  M 559.086 206.73 L 550.883 206.612 L 550.883 190.499 L 559.789 190.616 L 559.789 190.616 Q 562.133 190.616 564.301 189.855 L 564.301 189.855 L 564.301 189.855 Q 566.469 189.093 568.314 187.745 L 568.314 187.745 L 568.314 187.745 Q 570.16 186.397 571.566 184.552 L 571.566 184.552 L 571.566 184.552 Q 572.973 182.706 573.852 180.538 L 573.852 180.538 L 573.852 180.538 Q 571.215 181.651 568.49 182.765 L 568.49 182.765 L 568.49 182.765 Q 565.766 183.878 563.012 183.878 L 563.012 183.878 L 563.012 183.878 Q 557.211 183.878 552.113 181.827 L 552.113 181.827 L 552.113 181.827 Q 547.016 179.776 543.178 175.997 L 543.178 175.997 L 543.178 175.997 Q 539.34 172.218 537.143 166.798 L 537.143 166.798 L 537.143 166.798 Q 534.945 161.378 534.945 154.64 L 534.945 154.64 L 534.945 119.952 L 550.883 119.952 L 550.883 154.64 L 550.883 154.64 Q 550.883 157.98 551.85 160.47 L 551.85 160.47 L 551.85 160.47 Q 552.816 162.96 554.457 164.63 L 554.457 164.63 L 554.457 164.63 Q 556.098 166.3 558.295 167.12 L 558.295 167.12 L 558.295 167.12 Q 560.492 167.94 563.012 167.94 L 563.012 167.94 L 563.012 167.94 Q 565.473 167.94 567.67 166.798 L 567.67 166.798 L 567.67 166.798 Q 569.867 165.655 571.508 163.78 L 571.508 163.78 L 571.508 163.78 Q 573.148 161.905 574.086 159.532 L 574.086 159.532 L 574.086 159.532 Q 575.023 157.159 575.023 154.64 L 575.023 154.64 L 575.023 119.952 L 591.137 119.952 L 591.137 174.796 L 591.137 174.796 Q 591.078 181.417 588.559 187.218 L 588.559 187.218 L 588.559 187.218 Q 586.039 193.019 581.674 197.355 L 581.674 197.355 L 581.674 197.355 Q 577.309 201.69 571.508 204.21 L 571.508 204.21 L 571.508 204.21 Q 565.707 206.73 559.086 206.73 L 559.086 206.73 L 559.086 206.73 Z " fill="rgb(99,99,99)"/></g></svg>